<?xml version="1.0" encoding="utf-8"?>
<!-- Generator: Adobe Illustrator 22.0.0, SVG Export Plug-In . SVG Version: 6.00 Build 0)  -->
<svg version="1.1" id="Layer_1" xmlns="http://www.w3.org/2000/svg" xmlns:xlink="http://www.w3.org/1999/xlink" x="0px" y="0px"
	 viewBox="0 0 512 512" style="enable-background:new 0 0 512 512;" xml:space="preserve">
<style type="text/css">
	.st0{fill:#FFFFFF;}
</style>
<path class="st0" d="M375.6,345.7l-47.9-47.9c-2.2-2.2-5.1-3.4-8.2-3.4h-7.8c13.3-17,21.1-38.3,21.1-61.5
	c0-55.2-44.7-99.9-99.9-99.9S133,177.8,133,233s44.7,99.9,99.9,99.9c23.2,0,44.5-7.9,61.5-21.1v7.8c0,3.1,1.2,6,3.4,8.2l47.9,47.9
	c4.5,4.5,11.8,4.5,16.3,0l13.6-13.6C380.1,357.5,380.1,350.2,375.6,345.7z M232.9,294.4c-34,0-61.5-27.5-61.5-61.5
	c0-34,27.5-61.5,61.5-61.5c34,0,61.5,27.5,61.5,61.5C294.4,266.9,266.9,294.4,232.9,294.4z"/>
</svg>
